<?xml version="1.0" encoding="UTF-8" standalone="no"?>
<!-- Created with Inkscape (http://www.inkscape.org/) -->

<svg
   xmlns:dc="http://purl.org/dc/elements/1.1/"
   xmlns:cc="http://creativecommons.org/ns#"
   xmlns:rdf="http://www.w3.org/1999/02/22-rdf-syntax-ns#"
   xmlns:svg="http://www.w3.org/2000/svg"
   xmlns="http://www.w3.org/2000/svg"
   xmlns:sodipodi="http://sodipodi.sourceforge.net/DTD/sodipodi-0.dtd"
   xmlns:inkscape="http://www.inkscape.org/namespaces/inkscape"
   id="svg3498"
   version="1.1"
   inkscape:version="0.48.4 r9939"
   width="225"
   height="64"
   sodipodi:docname="Untitled.jpg">
  <metadata
     id="metadata3504">
    <rdf:RDF>
      <cc:Work
         rdf:about="">
        <dc:format>image/svg+xml</dc:format>
        <dc:type
           rdf:resource="http://purl.org/dc/dcmitype/StillImage" />
        <dc:title></dc:title>
      </cc:Work>
    </rdf:RDF>
  </metadata>
  <defs
     id="defs3502" />
  <sodipodi:namedview
     pagecolor="#ffffff"
     bordercolor="#666666"
     borderopacity="1"
     objecttolerance="10"
     gridtolerance="10"
     guidetolerance="10"
     inkscape:pageopacity="0"
     inkscape:pageshadow="2"
     inkscape:window-width="1366"
     inkscape:window-height="706"
     id="namedview3500"
     showgrid="false"
     inkscape:zoom="1.3688889"
     inkscape:cx="112.5"
     inkscape:cy="32"
     inkscape:window-x="-8"
     inkscape:window-y="-8"
     inkscape:window-maximized="1"
     inkscape:current-layer="svg3498" />
  <g
     id="g3021"
     transform="matrix(1.25,0,0,-1.25,218.83752,27.121032)">
    <path
       inkscape:connector-curvature="0"
       d="m 0,0 2.107,-10.888 -1.972,-0.46 -14.887,0 -1.54,0.973 0,-0.973 -16.076,0 -1.648,0.811 0,-0.811 -33.556,0 -1.81,0.973 0,-1.108 -16.995,0 0,6.62 7.592,0 0,4.728 8.511,0 0,-4.512 26.613,0 0,4.377 9.51,0 0,-4.593 8.511,0 0,4.782 8.511,0 0,-4.647 8.51,0 0,4.647 L 0,0 z"
       style="fill:#767776;fill-opacity:1;fill-rule:nonzero;stroke:none"
       id="path3023" />
  </g>
  <g
     id="g3025"
     transform="matrix(1.25,0,0,-1.25,72.298514,27.121032)">
    <path
       inkscape:connector-curvature="0"
       d="m 0,0 1.648,-11.213 -3.674,-0.27 -12.186,0 -2.296,1.432 0,-1.513 -14.887,0 0,-5.484 -1.945,-1.027 -17.67,0 -1.864,3.377 -0.973,5.215 0,3.593 6.998,0 1.027,-1.918 0,-3.621 6.727,0 -1.864,20.804 7.051,0 1.676,-14.238 7.348,0 0,4.647 8.511,0 0,-4.566 7.565,0 0,4.566 L 0,0 z"
       style="fill:#767776;fill-opacity:1;fill-rule:nonzero;stroke:none"
       id="path3027" />
  </g>
  <path
     inkscape:connector-curvature="0"
     d="m 39.100014,23.811382 10.40125,0 0,-2.6 -10.40125,0 0,2.6 z"
     style="fill:#767776;fill-opacity:1;fill-rule:nonzero;stroke:none"
     id="path3029" />
  <g
     id="g3031"
     transform="matrix(1.25,0,0,-1.25,60.376764,20.062632)">
    <path
       inkscape:connector-curvature="0"
       d="M 0,0 8.24,3.729 8.295,2.702 0.027,-1.027 0,0 z"
       style="fill:#767776;fill-opacity:1;fill-rule:nonzero;stroke:none"
       id="path3033" />
  </g>
  <path
     inkscape:connector-curvature="0"
     d="m 65.003764,47.621381 10.40125,0 0,-2.6 -10.40125,0 0,2.6 z"
     style="fill:#767776;fill-opacity:1;fill-rule:nonzero;stroke:none"
     id="path3035" />
  <path
     inkscape:connector-curvature="0"
     d="m 120.56002,47.520131 10.40125,0 0,-2.6 -10.40125,0 0,2.6 z"
     style="fill:#767776;fill-opacity:1;fill-rule:nonzero;stroke:none"
     id="path3037" />
  <g
     id="g3039"
     transform="matrix(1.25,0,0,-1.25,105.15927,33.098831)">
    <path
       inkscape:connector-curvature="0"
       d="m 0,0 0.378,-1.162 1.216,0 L 0.621,-1.891 0.973,-3.026 0,-2.324 l -0.946,-0.702 0.352,1.135 -0.973,0.729 1.216,0 L 0,0 z"
       style="fill:#00a651;fill-opacity:1;fill-rule:nonzero;stroke:none"
       id="path3041" />
  </g>
  <g
     id="g3043"
     transform="matrix(1.25,0,0,-1.25,105.39552,38.705131)">
    <path
       inkscape:connector-curvature="0"
       d="m 0,0 0.378,-1.162 1.216,0 L 0.622,-1.891 0.973,-3.053 0,-2.324 l -0.973,-0.729 0.379,1.162 -0.973,0.729 1.216,0 L 0,0 z"
       style="fill:#00a651;fill-opacity:1;fill-rule:nonzero;stroke:none"
       id="path3045" />
  </g>
  <g
     id="g3047"
     transform="matrix(1.25,0,0,-1.25,98.100884,49.985131)">
    <path
       inkscape:connector-curvature="0"
       d="m 0,0 0.081,-0.405 2.351,0 0.567,0.108 0.675,0.189 0.541,0.162 0.513,0.162 1,0.459 1.08,0.676 0.811,0.675 0.837,0.838 0.298,0.324 0.405,0.541 0.324,0.432 0.352,0.594 0.378,1.027 0.297,1.027 0,6.916 0,0.297 -0.081,0.379 -0.108,0.405 -0.216,0.54 -0.379,0.838 -0.405,0.864 -0.621,1.108 -4.026,0 L 5.944,16.67 6.727,15.562 7.484,14.373 8.159,12.969 8.511,11.915 8.754,10.996 8.862,10.132 8.889,9.24 8.808,8.295 8.646,7.403 8.511,6.646 8.376,6.214 8.213,5.701 8.024,5.214 7.781,4.836 7.511,4.431 7.214,4.026 6.916,3.62 6.538,3.188 5.998,2.621 5.701,2.297 5.431,2.053 5.133,1.783 4.809,1.54 4.161,1.135 3.782,0.919 3.431,0.729 3.161,0.621 2.729,0.459 2.378,0.351 1.999,0.27 1.486,0.189 0,0 z"
       style="fill:#000000;fill-opacity:1;fill-rule:nonzero;stroke:none"
       id="path3049" />
  </g>
  <g
     id="g3051"
     transform="matrix(1.25,0,0,-1.25,100.05951,27.391232)">
    <path
       inkscape:connector-curvature="0"
       d="m 0,0 -5.647,0.081 1,-1.297 0.783,-1.135 0.757,-1.161 0.54,-0.892 0.433,-0.891 0.351,-0.973 0.189,-0.784 0.216,-1.269 0.081,-0.838 -0.027,-1.162 -0.027,-0.351 -0.054,-0.297 -0.108,-0.46 -0.135,-0.486 -0.081,-0.324 -0.108,-0.189 -0.162,-0.216 -0.379,-0.433 -0.756,-0.675 -0.865,-0.486 -1.053,-0.46 -0.919,-0.243 -1.108,-0.216 -0.621,-0.081 -0.973,0 -1.162,0.081 -0.945,0.162 -0.784,0.216 -0.918,0.27 -0.892,0.378 -1.513,0.811 -0.946,0.568 -1.459,0.945 -2.269,1.648 -1.459,1.162 -2.161,1.756 -1.486,1.243 -1.919,1.567 -1.486,1.297 -1.351,1.216 -1.188,1.216 -1.324,1.567 -1.216,1.459 -1.297,1.729 -1.54,1.999 -0.486,-0.486 0.648,-1.675 1.675,-3.053 1.675,-2.702 1.459,-2.216 2.432,-2.945 3.566,-3.539 4.566,-3.539 3.08,-2.378 1,-0.54 0.865,-0.433 0.891,-0.432 1.27,-0.432 1.756,-0.459 1.162,-0.163 1.756,-0.135 4.836,0.054 0.298,0.027 0.405,0.081 0.432,0.109 0.433,0.161 0.594,0.271 0.648,0.351 0.352,0.216 0.297,0.27 0.297,0.298 0.459,0.459 0.595,0.756 0.324,0.487 0.378,0.594 0.459,0.865 0.325,0.756 0.27,0.946 0.189,0.81 0.135,1.027 0.027,1.216 -0.108,1.432 -0.081,0.675 -0.243,0.865 -0.406,1.405 -0.189,0.567 -0.27,0.838 L 1.405,-2.621 0.919,-1.432 0.378,-0.567 0,0 z"
       style="fill:#ed1d24;fill-opacity:1;fill-rule:nonzero;stroke:none"
       id="path3053" />
  </g>
</svg>
